STARTFONT 2.1
COMMENT
COMMENT Converted from OpenType font "icons.ttf" by "otf2bdf 3.0".
COMMENT
FONT -FreeType-Material Icons-Medium-R-Normal--46-330-100-100-P-425-ISO10646-1
SIZE 33 100 100
FONTBOUNDINGBOX 46 42 0 0
STARTPROPERTIES 19
FOUNDRY "FreeType"
FAMILY_NAME "Material Icons"
WEIGHT_NAME "Medium"
SLANT "R"
SETWIDTH_NAME "Normal"
ADD_STYLE_NAME ""
PIXEL_SIZE 46
POINT_SIZE 330
RESOLUTION_X 100
RESOLUTION_Y 100
SPACING "P"
AVERAGE_WIDTH 425
CHARSET_REGISTRY "ISO10646"
CHARSET_ENCODING "1"
FONT_ASCENT 46
FONT_DESCENT 0
COPYRIGHT "Copyright 2018 Google, Inc. All Rights Reserved."
_OTF_FONTFILE "icons.ttf"
_OTF_PSNAME "MaterialIcons-Regular"
ENDPROPERTIES
CHARS 3
STARTCHAR E87C
ENCODING 59516
SWIDTH 1003 0
DWIDTH 46 0
BBX 38 38 4 4
BITMAP
0003FF0000
001FFFE000
007FFFF800
00FFFFFC00
01FFFFFE00
07FFFFFF80
07FFFFFF80
0FFFFFFFC0
1FF9FFFFE0
3FF8FFFFF0
3FF07FFFF0
7FE03FFFF8
7FE00FFFF8
7FC003FFF8
FF00007FFC
FE0000003C
F80000003C
F00000003C
F00000003C
F01E01E03C
F01F03E03C
F01F03E03C
F01E01E03C
F00000003C
7800000078
7800000078
7C000000F8
3C000000F0
3E000001F0
1F000003E0
0F800007C0
0FC0000F80
07F0003F80
03FC00FE00
00FFFFFC00
007FFFF800
001FFFE000
0003FF0000
ENDCHAR
STARTCHAR EB41
ENCODING 60225
SWIDTH 1003 0
DWIDTH 46 0
BBX 42 34 2 6
BITMAP
0000FFC00000
0007FFF80000
000FFFFC0000
003FFFFF0000
007F003F8000
00FC000FC000
01F80007E000
01E00003E000
03E00001F000
03C00000F000
0F8000007C00
3F8000007F00
3F03C0F03F00
7C03E1F00F80
F803E1F007C0
F003C0F003C0
F000804003C0
F000000003C0
F000000003C0
F800000007C0
7C0000000F80
3F07FFF83F00
3F87FFF87F00
0F83FFF07C00
07C1FFE0F800
03E0FFC1F000
01F01C01E000
01F80007E000
00FC000FC000
007F003F8000
003FFFFF0000
000FFFFC0000
0007FFF00000
0000FFC00000
ENDCHAR
STARTCHAR F8DB
ENCODING 63707
SWIDTH 1003 0
DWIDTH 46 0
BBX 46 42 0 0
BITMAP
00003FF00000
0001FFFE0000
0007FFFF8000
001FFFFFE000
003FFFFFF000
007FFFFFF800
00FFFFFFFC00
01FFFFFFFE00
03FFFFFFFF00
07FFFFFFFF80
07FFFFFFFF80
0FFFFCFFFFC0
0FFFF87FFFC0
1FFFF03FFFE0
1F1FC00FE3E0
1F00000003E0
3F00000003F0
3F00000003F0
3F00000003F0
3F01E01E03F0
3F01F03E03F0
3F01F03E03F0
3F01E01E03F0
3F00000003F0
3F80000007F0
7F80000007F8
7FC000000FF8
7FC000000FF8
7FE000001FF8
7FF000003FF8
7FF800007FF8
7FFC0000FFF8
7FFF0003FFF8
7FFFC00FFFF8
7FFFFFFFFFF8
7FFFFFFFFFF8
FFFFFFFFFFFC
FFFFFFFFFFFC
FFFFFFFFFFFC
7FFFFFFFFFF8
7FFFFFFFFFF8
3FFFFFFFFFF0
ENDCHAR
ENDFONT
