STARTFONT 2.1
COMMENT
COMMENT Converted from OpenType font "icons_x_small.ttf" by "otf2bdf 3.0".
COMMENT
FONT -FreeType-Material Icons-Medium-R-Normal--21-150-100-100-M-175-ISO10646-1
SIZE 15 100 100
FONTBOUNDINGBOX 19 19 0 0
STARTPROPERTIES 19
FOUNDRY "FreeType"
FAMILY_NAME "Material Icons"
WEIGHT_NAME "Medium"
SLANT "R"
SETWIDTH_NAME "Normal"
ADD_STYLE_NAME ""
PIXEL_SIZE 21
POINT_SIZE 150
RESOLUTION_X 100
RESOLUTION_Y 100
SPACING "M"
AVERAGE_WIDTH 175
CHARSET_REGISTRY "ISO10646"
CHARSET_ENCODING "1"
FONT_ASCENT 21
FONT_DESCENT 0
COPYRIGHT "Copyright 2018 Google, Inc. All Rights Reserved."
_OTF_FONTFILE "icons_x_small.ttf"
_OTF_PSNAME "MaterialIcons-Regular"
ENDPROPERTIES
CHARS 1
STARTCHAR E86C
ENCODING 59500
SWIDTH 1008 0
DWIDTH 21 0
BBX 17 17 2 2
BITMAP
07F000
1FFC00
3FFE00
7FFF00
7FFB00
FFF380
FFE780
EFCF80
C79F80
E33F80
F07F80
F8FF80
7DFF00
7FFF00
3FFE00
1FFC00
07F000
ENDCHAR
ENDFONT
