STARTFONT 2.1
COMMENT
COMMENT Converted from OpenType font "icons.ttf" by "otf2bdf 3.0".
COMMENT
FONT -FreeType-Material Icons-Medium-R-Normal--62-450-100-100-P-581-ISO10646-1
SIZE 45 100 100
FONTBOUNDINGBOX 63 58 0 0
STARTPROPERTIES 19
FOUNDRY "FreeType"
FAMILY_NAME "Material Icons"
WEIGHT_NAME "Medium"
SLANT "R"
SETWIDTH_NAME "Normal"
ADD_STYLE_NAME ""
PIXEL_SIZE 62
POINT_SIZE 450
RESOLUTION_X 100
RESOLUTION_Y 100
SPACING "P"
AVERAGE_WIDTH 581
CHARSET_REGISTRY "ISO10646"
CHARSET_ENCODING "1"
FONT_ASCENT 63
FONT_DESCENT 0
COPYRIGHT "Copyright 2018 Google, Inc. All Rights Reserved."
_OTF_FONTFILE "icons.ttf"
_OTF_PSNAME "MaterialIcons-Regular"
ENDPROPERTIES
CHARS 3
STARTCHAR E87C
ENCODING 59516
SWIDTH 1008 0
DWIDTH 63 0
BBX 53 53 5 5
BITMAP
000001FC000000
00003FFFE00000
0000FFFFF80000
0003FFFFFE0000
000FFFFFFF8000
001FFFFFFFC000
003FFFFFFFE000
00FFFFFFFFF800
01FFFFFFFFFC00
01FFFFFFFFFC00
03FFEFFFFFFE00
07FFEFFFFFFF00
0FFFC7FFFFFF80
0FFFC3FFFFFF80
1FFF81FFFFFFC0
1FFF007FFFFFC0
3FFF003FFFFFE0
3FFE000FFFFFE0
7FFC0003FFFFF0
7FF80000FFFFF0
7FF000001FFFF0
7FC000000001F0
7F8000000001F0
FE0000000001F8
FC0000000001F8
F80000000001F8
F8007800F000F8
F800FC01F800F8
FC01FC01FC01F8
FC01FC01FC01F8
7C00FC01F801F0
7C00F800F801F0
7C0000000001F0
7E0000000003F0
7E0000000003E0
3E0000000003E0
3F0000000007E0
1F800000000FC0
1F800000000FC0
0FC00000001F80
0FE00000003F80
07F00000007F00
03F8000000FE00
01FC000001FC00
01FF000007F800
00FF80000FF000
003FF0007FE000
001FFF8FFFC000
000FFFFFFF8000
0003FFFFFE0000
0000FFFFF80000
00003FFFC00000
000001FC000000
ENDCHAR
STARTCHAR EB41
ENCODING 60225
SWIDTH 1008 0
DWIDTH 63 0
BBX 57 47 3 8
BITMAP
000001FFC0000000
00000FFFF8000000
00003FFFFE000000
0000FFFFFF800000
0003FFFFFFE00000
0007FF80FFF00000
000FF8001FF80000
001FE00003FC0000
003FC00001FE0000
007F800000FE0000
007F0000007F0000
00FC0000003F8000
00FC0000001F8000
01F80000000FC000
07F000000007F000
0FF000000007F800
1FE006003007FC00
3FE01F00FC03FE00
7F001F80FC00FF00
7E001F80FC003F00
FC001F80FC001F80
F8001F80FC000F80
F8000E0078000F80
F800000000000F80
F800000000000F80
F800000000000F80
FC00000000001F80
7E00000000003F00
7F80000000007F00
3FE07FFFFF03FE00
1FF03FFFFE07FE00
0FF03FFFFE07FC00
07F01FFFFC07F000
01F80FFFF80FC000
00FC07FFF01F8000
00FE01FFC03F8000
007E003E003F0000
007F800000FF0000
003FC00001FE0000
001FE00003FC0000
000FF8000FF80000
0007FF80FFF00000
0001FFFFFFC00000
0000FFFFFF800000
00003FFFFE000000
00000FFFF8000000
000001FFC0000000
ENDCHAR
STARTCHAR F8DB
ENCODING 63707
SWIDTH 1008 0
DWIDTH 63 0
BBX 63 58 0 0
BITMAP
0000000FE0000000
000001FFFF000000
00000FFFFFE00000
00003FFFFFF80000
0000FFFFFFFE0000
0001FFFFFFFF0000
0003FFFFFFFF8000
000FFFFFFFFFE000
001FFFFFFFFFF000
003FFFFFFFFFF800
007FFFFFFFFFF800
007FFFFFFFFFFC00
00FFFFFFFFFFFE00
01FFFFFFFFFFFF00
01FFFFFFFFFFFF00
03FFFFFEFFFFFF80
03FFFFFC7FFFFF80
07FFFFF83FFFFFC0
07FFFFF01FFFFFC0
0FF7FFE00FFFDFE0
0FE1FF0001FF0FE0
0FE0000000000FE0
1FE0000000000FF0
1FE0000000000FF0
1FE0000000000FF0
1FC00000000007F0
1FC003C0078007F0
1FC007E00FC007F0
1FE00FE00FE00FF0
1FE00FE00FE00FF0
3FE007E00FC00FF8
3FE007C007C00FF8
3FE0000000000FF8
3FF0000000001FF8
3FF0000000001FF8
3FF0000000003FF8
3FF8000000003FF8
3FFC000000007FF8
3FFC000000007FF8
3FFE00000000FFF8
3FFF00000001FFF8
7FFF80000003FFFC
7FFFC0000007FFFC
7FFFE000000FFFFC
7FFFF800003FFFFC
7FFFFC0000FFFFFC
7FFFFF8003FFFFFC
7FFFFFFC7FFFFFFC
7FFFFFFFFFFFFFFC
7FFFFFFFFFFFFFFC
7FFFFFFFFFFFFFFC
7FFFFFFFFFFFFFFC
FFFFFFFFFFFFFFFE
FFFFFFFFFFFFFFFC
7FFFFFFFFFFFFFFC
7FFFFFFFFFFFFFFC
3FFFFFFFFFFFFFF8
0FFFFFFFFFFFFFF0
ENDCHAR
ENDFONT
